<?xml version="1.0" standalone="no"?>
<!DOCTYPE svg PUBLIC "-//W3C//DTD SVG 20010904//EN"
 "http://www.w3.org/TR/2001/REC-SVG-20010904/DTD/svg10.dtd">
<svg version="1.0" xmlns="http://www.w3.org/2000/svg"
 width="151.000000pt" height="154.000000pt" viewBox="0 0 151.000000 154.000000"
 preserveAspectRatio="xMidYMid meet">

<g transform="translate(0.000000,154.000000) scale(0.100000,-0.100000)"
fill="#000000" stroke="none">
<path d="M190 1392 l-185 -107 -3 -220 -2 -220 182 -105 183 -106 3 -212 2
-212 38 -24 c118 -76 325 -186 349 -186 17 0 99 41 205 101 l178 100 0 214 0
213 185 108 185 108 -2 220 -3 220 -185 108 c-102 59 -189 108 -194 108 -5 0
-91 -47 -191 -105 l-183 -106 -180 106 c-99 58 -184 105 -189 105 -4 0 -91
-49 -193 -108z m220 58 c20 -13 17 -15 -153 -114 -127 -75 -150 -85 -168 -75
-11 6 -18 14 -14 17 11 12 300 180 310 181 6 0 17 -4 25 -9z m739 -4 c9 -11
-18 -31 -145 -105 -132 -77 -159 -89 -176 -80 -11 6 -16 15 -12 19 12 11 307
180 315 180 4 0 12 -6 18 -14z m-647 -50 c16 -12 0 -23 -142 -105 -138 -79
-163 -90 -181 -81 -11 7 -18 14 -15 17 8 8 310 183 316 183 3 0 13 -7 22 -14z
m733 0 c22 -16 35 -6 -163 -120 -115 -67 -135 -75 -154 -65 -17 9 -18 13 -7
20 8 5 77 46 154 93 77 46 143 85 146 85 3 1 14 -5 24 -13z m-632 -66 c-5 -4
-75 -46 -158 -94 -115 -67 -155 -86 -174 -81 -33 8 -27 13 146 115 128 76 151
86 171 77 12 -6 19 -14 15 -17z m732 0 c-3 -4 -72 -47 -155 -95 -108 -62 -155
-85 -170 -80 -11 3 -20 9 -20 13 0 4 71 48 158 98 120 70 161 89 175 82 10 -5
15 -13 12 -18z m-651 -43 c17 -12 3 -23 -140 -106 -143 -84 -160 -91 -181 -80
-13 7 -23 15 -23 18 1 8 302 180 316 180 5 1 18 -5 28 -12z m740 0 c16 -12 1
-23 -139 -106 -145 -85 -160 -92 -181 -80 -13 7 -24 15 -24 18 0 8 302 180
316 181 5 0 18 -6 28 -13z m-1334 -264 c0 -100 -3 -183 -7 -183 -5 0 -16 7
-25 14 -16 12 -18 34 -18 194 l0 182 25 -12 25 -11 0 -184z m640 37 c0 -168 0
-170 -20 -158 -19 12 -20 24 -20 160 0 129 2 148 18 157 9 6 18 11 20 11 1 0
2 -77 2 -170z m90 -36 c0 -182 0 -185 -20 -174 -19 10 -20 21 -20 196 0 182 0
185 20 174 19 -10 20 -21 20 -196z m650 40 c0 -152 -1 -165 -17 -162 -16 3
-18 20 -21 152 -2 143 3 176 29 176 5 0 9 -75 9 -166z m-833 -111 c-2 -2 -12
-1 -21 3 -25 10 -24 199 2 213 16 9 17 1 20 -101 1 -61 1 -112 -1 -115z m740
0 c-2 -2 -12 -1 -21 3 -25 10 -24 199 2 213 16 9 17 1 20 -101 1 -61 1 -112
-1 -115z m-1209 205 c8 -8 12 -65 12 -190 0 -98 -2 -178 -4 -178 -2 0 -11 3
-20 6 -14 5 -16 32 -16 190 0 101 4 184 8 184 4 0 13 -5 20 -12z m726 6 c14
-5 16 -32 16 -190 0 -182 0 -185 -20 -174 -19 10 -20 21 -20 190 0 99 2 180 4
180 2 0 11 -3 20 -6z m-624 -244 c0 -99 -4 -180 -8 -180 -27 0 -32 30 -32 202
0 176 0 179 20 168 19 -10 20 -21 20 -190z m730 4 c0 -159 -2 -183 -15 -178
-13 5 -15 36 -15 190 0 159 2 183 15 178 13 -5 15 -36 15 -190z m-640 -60 c0
-182 0 -185 -20 -174 -19 10 -20 21 -20 196 0 182 0 185 20 174 19 -10 20 -21
20 -196z m723 193 c16 -11 17 -32 15 -195 l-3 -182 -22 15 c-22 16 -23 21 -23
196 0 98 4 179 8 179 5 0 16 -6 25 -13z m-473 -155 c0 -5 -35 -28 -77 -52 -43
-24 -88 -50 -100 -58 -22 -13 -23 -13 -23 11 0 22 13 34 83 75 61 37 86 47
100 40 9 -5 17 -12 17 -16z m740 -2 c0 -3 -45 -31 -101 -62 -100 -57 -100 -57
-97 -31 2 22 18 36 82 74 66 38 83 45 98 35 10 -6 18 -13 18 -16z m-660 -40
c8 -5 12 -11 10 -13 -7 -7 -282 -167 -286 -167 -2 0 -4 11 -4 24 0 20 20 35
123 94 130 75 134 77 157 62z m740 0 c8 -5 12 -11 10 -13 -4 -3 -244 -142
-282 -164 -5 -2 -8 7 -8 21 0 21 18 35 123 95 129 74 133 76 157 61z m-647
-52 c14 -11 -5 -25 -144 -105 -139 -81 -162 -91 -179 -80 -11 6 -20 14 -20 17
1 7 302 179 316 179 5 1 18 -5 27 -11z m89 -73 c-9 -6 -81 -48 -159 -94 -124
-72 -145 -81 -163 -71 -12 6 -19 15 -15 18 4 4 75 46 158 93 131 76 154 86
174 76 21 -9 22 -11 5 -22z m88 -30 c7 -9 11 -17 9 -19 -2 -2 -72 -43 -156
-90 -133 -77 -154 -86 -173 -76 -12 6 -20 13 -18 15 8 8 314 185 319 185 4 0
12 -7 19 -15z m100 -55 c20 -12 19 -14 -154 -114 -146 -85 -149 -86 -174 -70
-24 16 -24 17 -6 27 10 6 80 46 154 89 137 79 153 85 180 68z m-617 -74 c15
-12 17 -34 17 -194 l0 -182 -25 12 -25 11 0 184 c0 100 3 183 8 183 4 0 15 -7
25 -14z m652 -314 c-2 -3 -11 1 -20 8 -12 10 -15 40 -15 156 0 126 2 144 18
153 16 9 17 -1 20 -151 1 -88 0 -163 -3 -166z m-545 71 c0 -101 -4 -183 -8
-183 -27 0 -32 30 -32 207 0 181 0 183 20 171 19 -12 20 -24 20 -195z m460 92
c0 -113 -1 -115 -20 -105 -18 10 -20 21 -20 105 0 79 3 96 18 104 9 6 18 11
20 11 1 0 2 -52 2 -115z m-382 43 c8 -8 12 -65 12 -190 0 -98 -2 -178 -4 -178
-2 0 -11 3 -20 6 -14 5 -16 32 -16 190 0 101 4 184 8 184 4 0 13 -5 20 -12z
m86 -44 c14 -5 16 -32 16 -190 0 -101 -2 -184 -4 -184 -2 0 -11 3 -20 6 -14 5
-16 32 -16 190 0 101 2 184 4 184 2 0 11 -3 20 -6z m266 -162 c0 -7 -182 -112
-194 -112 -3 0 -6 10 -6 23 0 30 155 120 182 106 10 -5 18 -13 18 -17z m87
-47 c2 -5 -39 -34 -90 -63 -50 -28 -116 -66 -145 -83 l-54 -32 4 28 c3 24 20
37 123 97 112 64 154 77 162 53z"/>
</g>
</svg>
