<svg version="1.1" id="Layer_1" xmlns="http://www.w3.org/2000/svg" xmlns:xlink="http://www.w3.org/1999/xlink" x="0px" y="0px"
	 width="100%" viewBox="0 0 473 125" enable-background="new 0 0 473 125" xml:space="preserve">
<path fill="#000000" opacity="1.000000" stroke="none" 
	d="
M474.000000,79.000000 
	C474.000000,94.651497 474.000000,110.302986 474.000000,126.000000 
	C339.312439,126.000000 204.624878,126.000000 69.134216,125.743927 
	C76.836060,120.338730 85.221931,114.974251 93.916145,110.167465 
	C96.639732,108.661674 97.074791,107.042496 97.040092,104.403587 
	C96.928459,95.913551 97.298088,87.406250 96.877708,78.935608 
	C96.653229,74.412453 98.538963,72.245079 102.209854,70.254707 
	C109.956223,66.054588 117.557739,61.565166 125.009933,56.863556 
	C126.486153,55.932198 127.817436,53.538486 127.866287,51.781635 
	C128.139221,41.965706 128.114197,32.135445 127.877800,22.317617 
	C127.840317,20.760832 126.589943,18.625305 125.256516,17.808874 
	C118.004974,13.368923 110.508636,9.330767 103.201042,4.978852 
	C101.584259,4.016000 100.389229,2.344951 99.000000,0.999999 
	C224.000015,1.000000 349.000031,1.000000 474.000000,1.000000 
	C474.000000,16.093885 474.000000,31.078285 473.746216,46.860062 
	C467.565430,38.519348 460.022095,31.800421 448.681549,30.264719 
	C437.792297,28.790129 422.824005,33.270470 416.931305,45.232704 
	C413.083923,53.042877 411.183441,61.020359 412.925323,69.821877 
	C414.714935,78.864845 418.199524,86.614624 426.314606,91.695305 
	C442.746063,101.982689 464.555939,96.385834 471.936890,80.348778 
	C472.227875,79.716583 473.294678,79.441490 474.000000,79.000000 
M168.000000,40.546371 
	C168.000000,58.943741 168.000000,77.341110 168.000000,95.992668 
	C178.402374,95.992668 188.083694,96.550323 197.671738,95.843224 
	C208.259277,95.062416 216.156021,87.047035 216.140045,76.000580 
	C216.131073,69.801620 213.874176,65.378700 208.744415,62.097252 
	C209.432205,61.258018 209.781799,60.688881 210.261261,60.267567 
	C218.860565,52.711491 215.701233,34.748001 202.332336,32.465000 
	C191.235703,30.570032 179.732361,31.056559 168.000000,30.467545 
	C168.000000,34.287518 168.000000,36.924633 168.000000,40.546371 
M266.739807,31.300636 
	C257.313202,31.300636 247.886581,31.300636 238.353790,31.300636 
	C238.353790,52.940769 238.353790,74.308876 238.353790,95.742714 
	C243.634735,95.742714 248.559830,95.742714 253.991241,95.742714 
	C253.991241,88.091606 253.991241,80.680664 253.991241,73.269714 
	C254.424652,72.988121 254.858047,72.706528 255.291458,72.424934 
	C256.781342,73.753120 258.656372,74.836143 259.687622,76.456245 
	C262.584808,81.007645 264.843414,85.985184 267.939514,90.382263 
	C269.570374,92.698410 272.215851,95.278130 274.771576,95.752022 
	C279.424896,96.614868 284.352814,95.997078 290.253265,95.997078 
	C284.396545,86.361176 278.937531,77.379608 273.482544,68.404640 
	C281.650177,63.138195 284.323578,55.201763 282.797607,46.147758 
	C281.408356,37.905201 275.650146,33.279556 266.739807,31.300636 
M344.692474,31.949272 
	C349.642456,40.982529 354.674316,49.972816 359.460999,59.091797 
	C360.248840,60.592724 360.626160,62.921276 360.037842,64.411079 
	C358.604980,68.039436 356.491760,71.398857 354.656036,74.868423 
	C351.038300,81.705933 347.422882,88.544678 343.480743,95.998947 
	C348.863861,95.998947 353.228180,96.368027 357.480469,95.838127 
	C359.506592,95.585648 362.054565,94.067390 363.091370,92.352020 
	C366.203888,87.202316 368.689026,81.673416 371.742279,75.655136 
	C374.490082,81.086823 376.805939,86.138832 379.581879,90.923996 
	C380.729675,92.902611 382.714996,95.517365 384.577271,95.746399 
	C389.888062,96.399551 395.331238,95.975883 401.325806,95.975883 
	C400.667145,94.634872 400.410706,94.073792 400.121643,93.530060 
	C395.209930,84.290344 390.284088,75.058090 385.386017,65.811127 
	C384.118591,63.418335 383.739105,61.492924 385.527802,58.637089 
	C391.028351,49.854855 395.843994,40.643646 401.258026,31.007891 
	C395.471100,31.007891 390.340881,30.793110 385.251099,31.152008 
	C383.901398,31.247177 382.218719,32.853828 381.475098,34.200565 
	C378.675873,39.270245 376.201080,44.519062 373.260742,50.387417 
	C370.421814,44.758995 367.829651,39.854050 365.466705,34.841072 
	C364.191498,32.135788 362.485809,30.777689 359.348999,30.949957 
	C354.540894,31.214006 349.714417,31.143274 344.692474,31.949272 
M324.964386,32.808022 
	C324.500336,32.236729 324.048859,31.181534 323.570251,31.169060 
	C318.824463,31.045347 314.074188,31.094149 309.374756,31.094149 
	C309.374756,53.040108 309.374756,74.380692 309.374756,95.731766 
	C314.671509,95.731766 319.590607,95.731766 324.992920,95.731766 
	C324.992920,74.898186 324.992920,54.328884 324.964386,32.808022 
z"/>
<path fill="#1C4BD6" opacity="1.000000" stroke="none" 
	d="
M98.562500,0.999999 
	C100.389229,2.344951 101.584259,4.016000 103.201042,4.978852 
	C110.508636,9.330767 118.004974,13.368923 125.256516,17.808874 
	C126.589943,18.625305 127.840317,20.760832 127.877800,22.317617 
	C128.114197,32.135445 128.139221,41.965706 127.866287,51.781635 
	C127.817436,53.538486 126.486153,55.932198 125.009933,56.863556 
	C117.557739,61.565166 109.956223,66.054588 102.209854,70.254707 
	C98.538963,72.245079 96.653229,74.412453 96.877708,78.935608 
	C97.298088,87.406250 96.928459,95.913551 97.040092,104.403587 
	C97.074791,107.042496 96.639732,108.661674 93.916145,110.167465 
	C85.221931,114.974251 76.836060,120.338730 68.665558,125.743927 
	C66.958336,126.000000 64.916664,126.000000 62.773163,125.750870 
	C54.167118,120.348404 45.778252,114.987267 37.090382,110.164787 
	C34.384586,108.662834 33.925068,107.040672 33.959354,104.396004 
	C34.071426,95.750542 33.784435,87.094788 34.100769,78.459465 
	C34.240429,74.646950 32.975239,72.593140 29.665751,70.801514 
	C21.481522,66.370903 13.467806,61.614281 5.524817,56.760777 
	C4.305520,56.015732 3.140954,54.075409 3.112441,52.664417 
	C2.907549,42.525066 2.887769,32.376968 3.124711,22.239019 
	C3.160806,20.694609 4.458284,18.591764 5.799924,17.762243 
	C13.843385,12.789060 22.086008,8.138927 30.210749,3.294760 
	C30.987209,2.831815 31.411968,1.778983 32.000000,1.000000 
	C34.041668,1.000000 36.083332,1.000000 38.220989,1.239395 
	C38.974323,2.214331 39.497265,3.185392 40.309757,3.649063 
	C48.636539,8.400949 57.010296,13.070521 65.233147,17.685738 
	C72.443993,13.663227 79.581078,9.810716 86.568466,5.703539 
	C88.598991,4.509999 90.201363,2.588048 92.000000,1.000001 
	C94.041664,1.000000 96.083336,1.000000 98.562500,0.999999 
M33.370674,41.276802 
	C32.626373,39.710892 31.882069,38.144985 31.137766,36.579075 
	C30.579939,36.774731 30.022110,36.970390 29.464283,37.166046 
	C29.464283,46.409676 29.375290,55.655251 29.577307,64.894463 
	C29.602459,66.044807 31.170128,67.161438 32.023052,68.293686 
	C32.473118,68.135506 32.923183,67.977325 33.373249,67.819145 
	C33.373249,59.255737 33.373249,50.692329 33.370674,41.276802 
M75.923409,76.464668 
	C71.364479,79.100975 66.805550,81.737289 62.246616,84.373596 
	C62.261898,84.795090 62.277184,85.216583 62.292469,85.638077 
	C63.845238,85.876900 65.784264,86.833946 66.889076,86.239807 
	C75.010139,81.872429 82.964401,77.194893 90.971222,72.615074 
	C90.838875,72.009514 90.706535,71.403961 90.574196,70.798409 
	C88.639267,70.983879 86.519928,70.731995 84.810699,71.452698 
	C81.920448,72.671402 79.289597,74.505272 75.923409,76.464668 
M33.423656,33.913013 
	C34.931087,33.742912 36.611084,33.939857 37.911121,33.328636 
	C40.898727,31.923996 43.711544,30.143494 46.576702,28.483437 
	C51.341511,25.722725 56.091728,22.936817 60.848087,20.161518 
	C60.706566,19.712759 60.565044,19.264000 60.423523,18.815241 
	C58.631779,18.815241 56.501038,18.178585 55.105068,18.921885 
	C47.802952,22.809975 40.669006,27.017302 33.544392,31.228344 
	C33.024490,31.535635 33.041794,32.751808 33.423656,33.913013 
M99.429893,27.947407 
	C96.976326,29.407583 94.522758,30.867762 91.349113,32.756477 
	C93.420982,33.655342 95.004654,34.928917 95.698685,34.554302 
	C104.204109,29.963352 112.579193,25.130938 120.988007,20.361010 
	C120.776245,19.736843 120.564484,19.112679 120.352722,18.488512 
	C118.483276,18.700068 116.357399,18.411909 114.791695,19.215368 
	C109.771751,21.791410 104.959076,24.771364 99.429893,27.947407 
M16.965504,59.380360 
	C17.296135,59.105110 17.913559,58.832211 17.915833,58.554276 
	C17.990307,49.446335 18.085627,40.336483 17.923704,31.231440 
	C17.904539,30.153751 16.428951,29.101963 15.628486,28.038170 
	C14.449130,37.842186 14.398269,47.079594 14.527613,56.314472 
	C14.540582,57.240509 15.646479,58.151237 16.965504,59.380360 
M37.143677,87.541260 
	C37.144905,92.702843 36.952148,97.876038 37.259918,103.019272 
	C37.358372,104.664474 38.782261,106.230354 39.599709,107.832527 
	C40.070431,107.644218 40.541149,107.455910 41.011868,107.267609 
	C41.011868,98.138847 41.116276,89.007591 40.897507,79.884071 
	C40.865284,78.540207 39.301033,77.233078 38.445618,75.908958 
	C38.011635,76.139854 37.577656,76.370750 37.143677,76.601654 
	C37.143677,79.921257 37.143677,83.240868 37.143677,87.541260 
M93.629959,66.751724 
	C93.669754,58.437241 93.834038,50.119953 93.646561,41.810596 
	C93.608086,40.105091 92.253792,38.429276 91.506012,36.739773 
	C90.971756,36.941208 90.437500,37.142647 89.903244,37.344082 
	C89.903244,46.475700 89.801506,55.610111 90.052162,64.734840 
	C90.078804,65.704613 92.168854,66.617699 93.629959,66.751724 
M82.398346,45.520348 
	C82.397621,61.938633 82.397621,61.938633 86.043892,63.717503 
	C86.043892,54.404621 86.131477,45.292965 85.942337,36.187057 
	C85.916237,34.930183 84.519463,33.701778 83.757248,32.460197 
	C83.304321,32.678532 82.851395,32.896866 82.398468,33.115200 
	C82.398468,36.921604 82.398468,40.728004 82.398346,45.520348 
M54.803207,85.820450 
	C52.227657,84.050232 52.100113,85.850563 52.096886,87.709663 
	C52.082775,95.838501 51.996338,103.969688 52.190201,112.093964 
	C52.222126,113.431931 53.522457,114.739639 54.236595,116.061333 
	C54.625988,115.885574 55.015381,115.709816 55.404774,115.534058 
	C55.404774,105.835526 55.404774,96.137001 54.803207,85.820450 
M61.101215,89.237213 
	C60.753338,89.493614 60.103771,89.747047 60.101212,90.006851 
	C60.011322,99.118332 59.896397,108.231964 60.060871,117.340309 
	C60.079941,118.396362 61.696659,119.423576 62.572674,120.464165 
	C62.986874,120.270363 63.401070,120.076561 63.815269,119.882759 
	C63.815269,110.660957 63.868118,101.438377 63.730850,92.218628 
	C63.717598,91.328575 62.525017,90.456070 61.101215,89.237213 
M10.858253,49.298592 
	C10.856831,42.331112 10.994414,35.358727 10.748777,28.399866 
	C10.692721,26.811823 9.313188,25.270496 8.542789,23.707668 
	C8.004452,23.900442 7.466114,24.093216 6.927777,24.285990 
	C6.927777,33.532200 6.830640,42.780731 7.051408,52.021671 
	C7.078830,53.169506 8.793932,54.277016 9.727010,55.403214 
	C10.104021,55.161156 10.481033,54.919094 10.858045,54.677036 
	C10.858045,53.198124 10.858045,51.719215 10.858253,49.298592 
M70.999855,27.970261 
	C70.223000,26.560108 69.446144,25.149956 68.669289,23.739803 
	C68.142700,23.937267 67.616112,24.134731 67.089523,24.332195 
	C67.089523,33.548412 66.988945,42.767101 67.215721,51.977734 
	C67.244354,53.140472 68.992722,54.260864 70.390526,55.935429 
	C70.786919,54.381153 70.938499,54.061848 70.939682,53.741989 
	C70.970222,45.456303 70.985115,37.170551 70.999855,27.970261 
M80.012909,13.539544 
	C76.653687,15.509176 73.294464,17.478807 69.712845,19.578836 
	C73.395500,21.886887 89.827438,14.113330 98.027428,6.082911 
	C96.378029,5.707038 94.521736,5.361277 93.180099,6.037145 
	C88.891357,8.197655 84.793503,10.737084 80.012909,13.539544 
M41.392529,70.829582 
	C41.051781,71.446915 40.711037,72.064255 40.370293,72.681595 
	C41.555759,72.882210 43.045471,73.646461 43.879589,73.196198 
	C52.141533,68.736374 60.294941,64.075470 68.479065,59.471489 
	C68.316589,58.877888 68.154114,58.284290 67.991638,57.690689 
	C66.232010,57.924477 64.209076,57.677895 62.757462,58.473598 
	C55.753727,62.312695 48.903839,66.432465 41.392529,70.829582 
M17.403013,14.936832 
	C14.753997,16.480833 12.104980,18.024834 9.129108,19.759346 
	C12.989988,21.743153 31.519629,12.760992 37.730373,5.905055 
	C36.013290,5.612958 34.129604,5.381920 32.750694,6.108646 
	C27.747791,8.745326 22.914108,11.703093 17.403013,14.936832 
M45.417953,19.899128 
	C47.842155,18.484934 50.266354,17.070740 52.690556,15.656547 
	C52.698383,15.247229 52.706211,14.837911 52.714043,14.428592 
	C51.211769,14.275993 49.345463,13.471498 48.265247,14.074710 
	C40.174656,18.592676 32.239292,23.388630 24.255329,28.097546 
	C24.387066,28.578630 24.518805,29.059715 24.650543,29.540800 
	C26.473269,29.265846 28.527775,29.437410 30.076036,28.633718 
	C35.079975,26.036211 39.897797,23.080172 45.417953,19.899128 
M53.169544,72.652405 
	C51.242989,73.836922 49.316429,75.021439 47.389870,76.205956 
	C47.511303,76.666473 47.632732,77.126999 47.754162,77.587517 
	C49.320999,77.414093 51.136280,77.693771 52.414021,76.993141 
	C60.236614,72.703690 67.937401,68.192108 75.678764,63.754528 
	C75.646606,63.321404 75.614441,62.888275 75.582283,62.455147 
	C73.875771,62.455147 71.849648,61.852951 70.518204,62.559620 
	C64.824463,65.581596 59.335670,68.989716 53.169544,72.652405 
M37.965328,11.471048 
	C31.017366,15.568290 24.069405,19.665531 17.121443,23.762774 
	C18.657442,25.109724 20.248796,25.810066 21.173473,25.300541 
	C29.269979,20.839098 37.247444,16.161621 45.385872,11.475861 
	C42.943470,7.488887 40.759651,9.939566 37.965328,11.471048 
M88.299171,25.864788 
	C87.118904,26.659674 85.938629,27.454559 84.549164,28.390333 
	C88.335007,30.297203 101.733131,23.877535 112.765411,14.628359 
	C110.964020,14.236088 108.915291,13.887384 107.483940,14.669109 
	C101.205299,18.098164 95.105293,21.854296 88.299171,25.864788 
M97.440918,11.966063 
	C90.762566,15.892644 84.084221,19.819225 77.082413,23.935987 
	C80.891350,26.024515 95.332428,19.132833 105.500427,11.018373 
	C102.655220,6.993830 100.459732,10.696489 97.440918,11.966063 
M77.593124,71.054016 
	C79.394295,69.986076 81.195465,68.918144 83.175964,67.743881 
	C79.681030,65.258156 64.617859,72.439987 55.193008,81.273720 
	C57.074516,81.491600 59.062729,81.546120 60.590607,80.734283 
	C66.131989,77.789886 71.518997,74.554962 77.593124,71.054016 
M93.804230,85.590454 
	C93.804230,82.540520 93.804230,79.490585 93.804230,76.013496 
	C90.064095,78.113373 88.691345,88.680145 90.183533,99.550507 
	C90.357796,100.819977 91.685669,101.931099 92.478729,103.115631 
	C92.920555,102.885368 93.362373,102.655098 93.804199,102.424835 
	C93.804199,97.137054 93.804199,91.849274 93.804230,85.590454 
M121.026291,24.833939 
	C118.281303,32.307663 119.777916,49.181526 123.750412,50.588516 
	C123.750412,42.360931 123.794487,34.284721 123.663834,26.211338 
	C123.653770,25.589008 122.413803,24.986582 121.026291,24.833939 
M68.425491,116.645500 
	C68.146263,117.687424 67.867035,118.729347 67.219917,121.143974 
	C75.997787,116.126846 83.383423,111.905464 90.992668,107.556274 
	C87.715645,104.900650 87.715645,104.900650 68.425491,116.645500 
M45.535053,64.003822 
	C50.514290,61.113571 55.493530,58.223320 60.472767,55.333069 
	C60.371632,54.846554 60.270496,54.360043 60.169361,53.873531 
	C58.678627,53.873531 56.971817,53.392067 55.730995,53.948925 
	C44.810440,58.849899 37.890186,64.204826 37.795181,68.335480 
	C40.383858,66.872787 42.631824,65.602608 45.535053,64.003822 
M113.872795,59.343197 
	C116.209305,57.917747 118.545822,56.492298 120.882332,55.066849 
	C120.601891,54.516624 120.321449,53.966404 120.041016,53.416180 
	C112.106224,53.994408 106.633095,60.245491 99.898621,63.560184 
	C98.763390,64.118942 98.205635,65.850975 97.381058,67.040901 
	C98.853691,67.604218 99.364540,67.563377 99.770973,67.335938 
	C104.273071,64.816513 108.758987,62.268173 113.872795,59.343197 
M44.941124,90.568001 
	C44.941116,109.974655 44.941116,109.974655 48.268551,111.170631 
	C48.268551,102.136024 48.354424,93.221985 48.177780,84.313148 
	C48.150677,82.946182 46.913517,81.603210 46.236000,80.249138 
	C45.804375,80.406563 45.372749,80.563988 44.941124,80.721413 
	C44.941124,83.680733 44.941124,86.640045 44.941124,90.568001 
M25.152950,37.918785 
	C24.592009,36.173126 24.031067,34.427471 23.470125,32.681812 
	C22.964432,32.836246 22.458740,32.990681 21.953049,33.145115 
	C21.953049,42.119442 21.876291,51.095196 22.043625,60.066399 
	C22.066263,61.280121 23.314169,62.470989 23.994730,63.672440 
	C24.380936,63.529144 24.767143,63.385845 25.153349,63.242550 
	C25.153349,55.105415 25.153349,46.968281 25.152950,37.918785 
M78.130714,57.069324 
	C78.138023,48.918777 78.229538,40.766644 78.075882,32.619129 
	C78.047867,31.133434 77.019676,29.666599 76.453194,28.191057 
	C75.953964,28.347979 75.454735,28.504900 74.955505,28.661821 
	C74.955505,37.793758 74.909981,46.926109 74.993561,56.057285 
	C75.010468,57.904152 75.524841,59.731750 78.130714,57.069324 
M63.279343,31.640017 
	C63.279343,29.222385 63.279343,26.804754 63.279343,24.387123 
	C62.649826,24.341993 62.020309,24.296865 61.390789,24.251736 
	C58.280441,31.252645 60.614937,38.920769 60.035717,46.221062 
	C59.917450,47.711655 60.978184,49.295792 61.495438,50.836807 
	C62.090080,50.707626 62.684719,50.578445 63.279362,50.449268 
	C63.279362,44.499985 63.279362,38.550701 63.279343,31.640017 
M99.081299,55.434509 
	C98.582901,56.651833 98.084511,57.869160 97.586113,59.086487 
	C97.945938,59.266979 98.305756,59.447475 98.665581,59.627968 
	C103.693947,56.759705 108.722321,53.891441 113.750687,51.023178 
	C113.560806,50.420116 113.370934,49.817059 113.181053,49.213997 
	C111.655869,49.378784 109.933601,49.146915 108.644745,49.787331 
	C105.544640,51.327736 102.647644,53.276928 99.081299,55.434509 
M47.668583,50.087368 
	C37.683899,56.054710 37.683899,56.054710 37.934505,59.819771 
	C43.261295,56.808167 48.339878,53.936890 53.418461,51.065613 
	C53.262680,50.500332 53.106899,49.935051 52.951118,49.369770 
	C51.403370,49.489712 49.855618,49.609657 47.668583,50.087368 
M79.198257,101.672554 
	C67.865860,108.226112 67.865860,108.226112 68.430382,112.020195 
	C73.655228,109.039818 78.708687,106.157204 83.762146,103.274590 
	C83.631462,102.800484 83.500771,102.326385 83.370079,101.852280 
	C82.186821,101.676270 81.003555,101.500259 79.198257,101.672554 
M55.918655,29.316462 
	C54.863068,29.955130 52.944450,30.532719 52.894218,31.242535 
	C52.603294,35.353359 52.602768,39.504646 52.857952,43.620296 
	C52.922241,44.657173 54.281849,45.613743 55.046196,46.607216 
	C55.356812,46.416027 55.667423,46.224838 55.978039,46.033653 
	C55.978039,40.754517 55.978039,35.475380 55.918655,29.316462 
M116.285812,35.637135 
	C116.285812,33.251095 116.285812,30.865057 116.285812,28.009169 
	C112.883049,30.288548 112.027412,34.713047 113.019150,42.921440 
	C113.166679,44.142502 114.254181,45.249996 114.906822,46.410030 
	C115.366493,46.255451 115.826164,46.100868 116.285835,45.946289 
	C116.285835,42.825764 116.285835,39.705235 116.285812,35.637135 
M82.959297,95.889198 
	C83.696327,96.866470 84.433357,97.843735 85.799316,99.654945 
	C85.799316,92.547440 85.799316,86.763252 85.799316,80.636269 
	C82.924438,82.758949 82.924438,82.758949 82.959297,95.889198 
z"/>
<path fill="#000000" opacity="1.000000" stroke="none" 
	d="
M31.531342,1.000000 
	C31.411968,1.778983 30.987209,2.831815 30.210749,3.294760 
	C22.086008,8.138927 13.843385,12.789060 5.799924,17.762243 
	C4.458284,18.591764 3.160806,20.694609 3.124711,22.239019 
	C2.887769,32.376968 2.907549,42.525066 3.112441,52.664417 
	C3.140954,54.075409 4.305520,56.015732 5.524817,56.760777 
	C13.467806,61.614281 21.481522,66.370903 29.665751,70.801514 
	C32.975239,72.593140 34.240429,74.646950 34.100769,78.459465 
	C33.784435,87.094788 34.071426,95.750542 33.959354,104.396004 
	C33.925068,107.040672 34.384586,108.662834 37.090382,110.164787 
	C45.778252,114.987267 54.167118,120.348404 62.335663,125.750870 
	C41.707737,126.000000 21.415478,126.000000 1.061641,126.000000 
	C1.061641,84.333336 1.061641,42.666668 1.061641,1.000000 
	C11.103083,1.000000 21.082884,1.000000 31.531342,1.000000 
z"/>
<path fill="#1548D7" opacity="1.000000" stroke="none" 
	d="
M474.000000,78.531342 
	C473.294678,79.441490 472.227875,79.716583 471.936890,80.348778 
	C464.555939,96.385834 442.746063,101.982689 426.314606,91.695305 
	C418.199524,86.614624 414.714935,78.864845 412.925323,69.821877 
	C411.183441,61.020359 413.083923,53.042877 416.931305,45.232704 
	C422.824005,33.270470 437.792297,28.790129 448.681549,30.264719 
	C460.022095,31.800421 467.565430,38.519348 473.746216,47.328720 
	C474.000000,57.354229 474.000000,67.708458 474.000000,78.531342 
M458.997955,59.885426 
	C458.322449,57.550602 457.900818,55.102856 456.922211,52.902863 
	C454.340454,47.098782 449.302765,44.463108 442.443726,45.006271 
	C436.418976,45.483372 431.622040,48.998741 430.243042,54.781017 
	C429.339355,58.570316 428.957733,62.601566 429.097260,66.497421 
	C429.375580,74.267769 435.587952,81.439400 442.172607,81.960869 
	C449.128479,82.511734 456.444183,79.268372 458.617615,69.717422 
	C459.268097,66.858917 458.900818,63.768803 458.997955,59.885426 
z"/>
<path fill="#000000" opacity="1.000000" stroke="none" 
	d="
M91.531342,1.000001 
	C90.201363,2.588048 88.598991,4.509999 86.568466,5.703539 
	C79.581078,9.810716 72.443993,13.663227 65.233147,17.685738 
	C57.010296,13.070521 48.636539,8.400949 40.309757,3.649063 
	C39.497265,3.185392 38.974323,2.214331 38.658489,1.239395 
	C56.354229,1.000000 73.708458,1.000000 91.531342,1.000001 
z"/>
<path fill="#1548D7" opacity="1.000000" stroke="none" 
	d="
M168.000000,40.054062 
	C168.000000,36.924633 168.000000,34.287518 168.000000,30.467545 
	C179.732361,31.056559 191.235703,30.570032 202.332336,32.465000 
	C215.701233,34.748001 218.860565,52.711491 210.261261,60.267567 
	C209.781799,60.688881 209.432205,61.258018 208.744415,62.097252 
	C213.874176,65.378700 216.131073,69.801620 216.140045,76.000580 
	C216.156021,87.047035 208.259277,95.062416 197.671738,95.843224 
	C188.083694,96.550323 178.402374,95.992668 168.000000,95.992668 
	C168.000000,77.341110 168.000000,58.943741 168.000000,40.054062 
M184.185501,70.831963 
	C184.185501,74.413467 184.185501,77.994972 184.185501,81.772789 
	C185.359406,81.866783 186.153976,81.977600 186.949539,81.985352 
	C189.430832,82.009529 191.914612,82.059845 194.393616,81.980621 
	C198.730179,81.842026 199.791275,78.667160 199.912140,75.261658 
	C200.038834,71.692749 197.781357,69.989975 194.274933,70.011948 
	C191.135223,70.031631 187.995972,70.120720 184.185501,70.831963 
M184.033524,55.198643 
	C186.565948,57.631222 193.553818,58.187969 195.827866,55.288761 
	C197.360107,53.335281 198.461365,49.022476 197.355911,47.399956 
	C194.026794,42.513729 188.728546,45.894382 184.006714,45.003494 
	C184.006714,48.621197 184.006714,51.445065 184.033524,55.198643 
z"/>
<path fill="#1548D7" opacity="1.000000" stroke="none" 
	d="
M267.082581,31.564024 
	C275.650146,33.279556 281.408356,37.905201 282.797607,46.147758 
	C284.323578,55.201763 281.650177,63.138195 273.482544,68.404640 
	C278.937531,77.379608 284.396545,86.361176 290.253265,95.997078 
	C284.352814,95.997078 279.424896,96.614868 274.771576,95.752022 
	C272.215851,95.278130 269.570374,92.698410 267.939514,90.382263 
	C264.843414,85.985184 262.584808,81.007645 259.687622,76.456245 
	C258.656372,74.836143 256.781342,73.753120 255.291458,72.424934 
	C254.858047,72.706528 254.424652,72.988121 253.991241,73.269714 
	C253.991241,80.680664 253.991241,88.091606 253.991241,95.742714 
	C248.559830,95.742714 243.634735,95.742714 238.353790,95.742714 
	C238.353790,74.308876 238.353790,52.940769 238.353790,31.300636 
	C247.886581,31.300636 257.313202,31.300636 267.082581,31.564024 
M258.989777,59.929562 
	C259.907379,59.607143 260.808075,59.220589 261.745483,58.973278 
	C266.053467,57.836746 267.486206,54.775486 266.936768,50.732410 
	C266.384521,46.668488 263.724670,44.881535 259.686920,44.992783 
	C257.924683,45.041332 256.160065,45.000938 254.332245,45.000938 
	C254.332245,50.340324 254.332245,55.064953 254.332245,59.985561 
	C255.821320,59.985561 256.978088,59.985561 258.989777,59.929562 
z"/>
<path fill="#1548D7" opacity="1.000000" stroke="none" 
	d="
M344.794098,31.581951 
	C349.714417,31.143274 354.540894,31.214006 359.348999,30.949957 
	C362.485809,30.777689 364.191498,32.135788 365.466705,34.841072 
	C367.829651,39.854050 370.421814,44.758995 373.260742,50.387417 
	C376.201080,44.519062 378.675873,39.270245 381.475098,34.200565 
	C382.218719,32.853828 383.901398,31.247177 385.251099,31.152008 
	C390.340881,30.793110 395.471100,31.007891 401.258026,31.007891 
	C395.843994,40.643646 391.028351,49.854855 385.527802,58.637089 
	C383.739105,61.492924 384.118591,63.418335 385.386017,65.811127 
	C390.284088,75.058090 395.209930,84.290344 400.121643,93.530060 
	C400.410706,94.073792 400.667145,94.634872 401.325806,95.975883 
	C395.331238,95.975883 389.888062,96.399551 384.577271,95.746399 
	C382.714996,95.517365 380.729675,92.902611 379.581879,90.923996 
	C376.805939,86.138832 374.490082,81.086823 371.742279,75.655136 
	C368.689026,81.673416 366.203888,87.202316 363.091370,92.352020 
	C362.054565,94.067390 359.506592,95.585648 357.480469,95.838127 
	C353.228180,96.368027 348.863861,95.998947 343.480743,95.998947 
	C347.422882,88.544678 351.038300,81.705933 354.656036,74.868423 
	C356.491760,71.398857 358.604980,68.039436 360.037842,64.411079 
	C360.626160,62.921276 360.248840,60.592724 359.460999,59.091797 
	C354.674316,49.972816 349.642456,40.982529 344.794098,31.581951 
z"/>
<path fill="#1548D7" opacity="1.000000" stroke="none" 
	d="
M324.978638,33.283806 
	C324.992920,54.328884 324.992920,74.898186 324.992920,95.731766 
	C319.590607,95.731766 314.671509,95.731766 309.374756,95.731766 
	C309.374756,74.380692 309.374756,53.040108 309.374756,31.094149 
	C314.074188,31.094149 318.824463,31.045347 323.570251,31.169060 
	C324.048859,31.181534 324.500336,32.236729 324.978638,33.283806 
z"/>
<path fill="#E173BE" opacity="1.000000" stroke="none" 
	d="
M33.371964,41.702866 
	C33.373249,50.692329 33.373249,59.255737 33.373249,67.819145 
	C32.923183,67.977325 32.473118,68.135506 32.023052,68.293686 
	C31.170128,67.161438 29.602459,66.044807 29.577307,64.894463 
	C29.375290,55.655251 29.464283,46.409676 29.464283,37.166046 
	C30.022110,36.970390 30.579939,36.774731 31.137766,36.579075 
	C31.882069,38.144985 32.626373,39.710892 33.371964,41.702866 
z"/>
<path fill="#EAAA9B" opacity="1.000000" stroke="none" 
	d="
M76.236542,76.272583 
	C79.289597,74.505272 81.920448,72.671402 84.810699,71.452698 
	C86.519928,70.731995 88.639267,70.983879 90.574196,70.798409 
	C90.706535,71.403961 90.838875,72.009514 90.971222,72.615074 
	C82.964401,77.194893 75.010139,81.872429 66.889076,86.239807 
	C65.784264,86.833946 63.845238,85.876900 62.292469,85.638077 
	C62.277184,85.216583 62.261898,84.795090 62.246616,84.373596 
	C66.805550,81.737289 71.364479,79.100975 76.236542,76.272583 
z"/>
<path fill="#E9AA9C" opacity="1.000000" stroke="none" 
	d="
M33.116493,33.729218 
	C33.041794,32.751808 33.024490,31.535635 33.544392,31.228344 
	C40.669006,27.017302 47.802952,22.809975 55.105068,18.921885 
	C56.501038,18.178585 58.631779,18.815241 60.423523,18.815241 
	C60.565044,19.264000 60.706566,19.712759 60.848087,20.161518 
	C56.091728,22.936817 51.341511,25.722725 46.576702,28.483437 
	C43.711544,30.143494 40.898727,31.923996 37.911121,33.328636 
	C36.611084,33.939857 34.931087,33.742912 33.116493,33.729218 
z"/>
<path fill="#EBAB9B" opacity="1.000000" stroke="none" 
	d="
M99.748154,27.771431 
	C104.959076,24.771364 109.771751,21.791410 114.791695,19.215368 
	C116.357399,18.411909 118.483276,18.700068 120.352722,18.488512 
	C120.564484,19.112679 120.776245,19.736843 120.988007,20.361010 
	C112.579193,25.130938 104.204109,29.963352 95.698685,34.554302 
	C95.004654,34.928917 93.420982,33.655342 91.349113,32.756477 
	C94.522758,30.867762 96.976326,29.407583 99.748154,27.771431 
z"/>
<path fill="#DF73BF" opacity="1.000000" stroke="none" 
	d="
M16.605328,59.224716 
	C15.646479,58.151237 14.540582,57.240509 14.527613,56.314472 
	C14.398269,47.079594 14.449130,37.842186 15.628486,28.038170 
	C16.428951,29.101963 17.904539,30.153751 17.923704,31.231440 
	C18.085627,40.336483 17.990307,49.446335 17.915833,58.554276 
	C17.913559,58.832211 17.296135,59.105110 16.605328,59.224716 
z"/>
<path fill="#EE76BD" opacity="1.000000" stroke="none" 
	d="
M37.143677,87.050873 
	C37.143677,83.240868 37.143677,79.921257 37.143677,76.601654 
	C37.577656,76.370750 38.011635,76.139854 38.445618,75.908958 
	C39.301033,77.233078 40.865284,78.540207 40.897507,79.884071 
	C41.116276,89.007591 41.011868,98.138847 41.011868,107.267609 
	C40.541149,107.455910 40.070431,107.644218 39.599709,107.832527 
	C38.782261,106.230354 37.358372,104.664474 37.259918,103.019272 
	C36.952148,97.876038 37.144905,92.702843 37.143677,87.050873 
z"/>
<path fill="#E674BE" opacity="1.000000" stroke="none" 
	d="
M93.465805,67.154404 
	C92.168854,66.617699 90.078804,65.704613 90.052162,64.734840 
	C89.801506,55.610111 89.903244,46.475700 89.903244,37.344082 
	C90.437500,37.142647 90.971756,36.941208 91.506012,36.739773 
	C92.253792,38.429276 93.608086,40.105091 93.646561,41.810596 
	C93.834038,50.119953 93.669754,58.437241 93.465805,67.154404 
z"/>
<path fill="#DF73BF" opacity="1.000000" stroke="none" 
	d="
M82.398407,45.027378 
	C82.398468,40.728004 82.398468,36.921604 82.398468,33.115200 
	C82.851395,32.896866 83.304321,32.678532 83.757248,32.460197 
	C84.519463,33.701778 85.916237,34.930183 85.942337,36.187057 
	C86.131477,45.292965 86.043892,54.404621 86.043892,63.717503 
	C82.397621,61.938633 82.397621,61.938633 82.398407,45.027378 
z"/>
<path fill="#D771C0" opacity="1.000000" stroke="none" 
	d="
M55.103989,86.129463 
	C55.404774,96.137001 55.404774,105.835526 55.404774,115.534058 
	C55.015381,115.709816 54.625988,115.885574 54.236595,116.061333 
	C53.522457,114.739639 52.222126,113.431931 52.190201,112.093964 
	C51.996338,103.969688 52.082775,95.838501 52.096886,87.709663 
	C52.100113,85.850563 52.227657,84.050232 55.103989,86.129463 
z"/>
<path fill="#EF76BD" opacity="1.000000" stroke="none" 
	d="
M61.490555,89.406319 
	C62.525017,90.456070 63.717598,91.328575 63.730850,92.218628 
	C63.868118,101.438377 63.815269,110.660957 63.815269,119.882759 
	C63.401070,120.076561 62.986874,120.270363 62.572674,120.464165 
	C61.696659,119.423576 60.079941,118.396362 60.060871,117.340309 
	C59.896397,108.231964 60.011322,99.118332 60.101212,90.006851 
	C60.103771,89.747047 60.753338,89.493614 61.490555,89.406319 
z"/>
<path fill="#EE76BD" opacity="1.000000" stroke="none" 
	d="
M10.858149,49.769447 
	C10.858045,51.719215 10.858045,53.198124 10.858045,54.677036 
	C10.481033,54.919094 10.104021,55.161156 9.727010,55.403214 
	C8.793932,54.277016 7.078830,53.169506 7.051408,52.021671 
	C6.830640,42.780731 6.927777,33.532200 6.927777,24.285990 
	C7.466114,24.093216 8.004452,23.900442 8.542789,23.707668 
	C9.313188,25.270496 10.692721,26.811823 10.748777,28.399866 
	C10.994414,35.358727 10.856831,42.331112 10.858149,49.769447 
z"/>
<path fill="#F577BC" opacity="1.000000" stroke="none" 
	d="
M71.001282,28.427538 
	C70.985115,37.170551 70.970222,45.456303 70.939682,53.741989 
	C70.938499,54.061848 70.786919,54.381153 70.390526,55.935429 
	C68.992722,54.260864 67.244354,53.140472 67.215721,51.977734 
	C66.988945,42.767101 67.089523,33.548412 67.089523,24.332195 
	C67.616112,24.134731 68.142700,23.937267 68.669289,23.739803 
	C69.446144,25.149956 70.223000,26.560108 71.001282,28.427538 
z"/>
<path fill="#E8A99C" opacity="1.000000" stroke="none" 
	d="
M80.317429,13.334883 
	C84.793503,10.737084 88.891357,8.197655 93.180099,6.037145 
	C94.521736,5.361277 96.378029,5.707038 98.027428,6.082911 
	C89.827438,14.113330 73.395500,21.886887 69.712845,19.578836 
	C73.294464,17.478807 76.653687,15.509176 80.317429,13.334883 
z"/>
<path fill="#E8A99C" opacity="1.000000" stroke="none" 
	d="
M41.695953,70.641129 
	C48.903839,66.432465 55.753727,62.312695 62.757462,58.473598 
	C64.209076,57.677895 66.232010,57.924477 67.991638,57.690689 
	C68.154114,58.284290 68.316589,58.877888 68.479065,59.471489 
	C60.294941,64.075470 52.141533,68.736374 43.879589,73.196198 
	C43.045471,73.646461 41.555759,72.882210 40.370293,72.681595 
	C40.711037,72.064255 41.051781,71.446915 41.695953,70.641129 
z"/>
<path fill="#E9AA9C" opacity="1.000000" stroke="none" 
	d="
M17.709801,14.738282 
	C22.914108,11.703093 27.747791,8.745326 32.750694,6.108646 
	C34.129604,5.381920 36.013290,5.612958 37.730373,5.905055 
	C31.519629,12.760992 12.989988,21.743153 9.129108,19.759346 
	C12.104980,18.024834 14.753997,16.480833 17.709801,14.738282 
z"/>
<path fill="#EAAA9B" opacity="1.000000" stroke="none" 
	d="
M45.102646,20.080708 
	C39.897797,23.080172 35.079975,26.036211 30.076036,28.633718 
	C28.527775,29.437410 26.473269,29.265846 24.650543,29.540800 
	C24.518805,29.059715 24.387066,28.578630 24.255329,28.097546 
	C32.239292,23.388630 40.174656,18.592676 48.265247,14.074710 
	C49.345463,13.471498 51.211769,14.275993 52.714043,14.428592 
	C52.706211,14.837911 52.698383,15.247229 52.690556,15.656547 
	C50.266354,17.070740 47.842155,18.484934 45.102646,20.080708 
z"/>
<path fill="#EAAA9B" opacity="1.000000" stroke="none" 
	d="
M53.470840,72.454704 
	C59.335670,68.989716 64.824463,65.581596 70.518204,62.559620 
	C71.849648,61.852951 73.875771,62.455147 75.582283,62.455147 
	C75.614441,62.888275 75.646606,63.321404 75.678764,63.754528 
	C67.937401,68.192108 60.236614,72.703690 52.414021,76.993141 
	C51.136280,77.693771 49.320999,77.414093 47.754162,77.587517 
	C47.632732,77.126999 47.511303,76.666473 47.389870,76.205956 
	C49.316429,75.021439 51.242989,73.836922 53.470840,72.454704 
z"/>
<path fill="#E8A99C" opacity="1.000000" stroke="none" 
	d="
M38.279541,11.280954 
	C40.759651,9.939566 42.943470,7.488887 45.385872,11.475861 
	C37.247444,16.161621 29.269979,20.839098 21.173473,25.300541 
	C20.248796,25.810066 18.657442,25.109724 17.121443,23.762774 
	C24.069405,19.665531 31.017366,15.568290 38.279541,11.280954 
z"/>
<path fill="#E9AA9C" opacity="1.000000" stroke="none" 
	d="
M88.619843,25.678299 
	C95.105293,21.854296 101.205299,18.098164 107.483940,14.669109 
	C108.915291,13.887384 110.964020,14.236088 112.765411,14.628359 
	C101.733131,23.877535 88.335007,30.297203 84.549164,28.390333 
	C85.938629,27.454559 87.118904,26.659674 88.619843,25.678299 
z"/>
<path fill="#E7A99C" opacity="1.000000" stroke="none" 
	d="
M97.758789,11.786904 
	C100.459732,10.696489 102.655220,6.993830 105.500427,11.018373 
	C95.332428,19.132833 80.891350,26.024515 77.082413,23.935987 
	C84.084221,19.819225 90.762566,15.892644 97.758789,11.786904 
z"/>
<path fill="#EAAA9B" opacity="1.000000" stroke="none" 
	d="
M77.278687,71.241837 
	C71.518997,74.554962 66.131989,77.789886 60.590607,80.734283 
	C59.062729,81.546120 57.074516,81.491600 55.193008,81.273720 
	C64.617859,72.439987 79.681030,65.258156 83.175964,67.743881 
	C81.195465,68.918144 79.394295,69.986076 77.278687,71.241837 
z"/>
<path fill="#D771BF" opacity="1.000000" stroke="none" 
	d="
M93.804214,86.075974 
	C93.804199,91.849274 93.804199,97.137054 93.804199,102.424835 
	C93.362373,102.655098 92.920555,102.885368 92.478729,103.115631 
	C91.685669,101.931099 90.357796,100.819977 90.183533,99.550507 
	C88.691345,88.680145 90.064095,78.113373 93.804230,76.013496 
	C93.804230,79.490585 93.804230,82.540520 93.804214,86.075974 
z"/>
<path fill="#DE72BF" opacity="1.000000" stroke="none" 
	d="
M121.385895,24.604422 
	C122.413803,24.986582 123.653770,25.589008 123.663834,26.211338 
	C123.794487,34.284721 123.750412,42.360931 123.750412,50.588516 
	C119.777916,49.181526 118.281303,32.307663 121.385895,24.604422 
z"/>
<path fill="#68C3C8" opacity="1.000000" stroke="none" 
	d="
M68.684494,116.435684 
	C87.715645,104.900650 87.715645,104.900650 90.992668,107.556274 
	C83.383423,111.905464 75.997787,116.126846 67.219917,121.143974 
	C67.867035,118.729347 68.146263,117.687424 68.684494,116.435684 
z"/>
<path fill="#69C4C7" opacity="1.000000" stroke="none" 
	d="
M45.207424,64.168121 
	C42.631824,65.602608 40.383858,66.872787 37.795181,68.335480 
	C37.890186,64.204826 44.810440,58.849899 55.730995,53.948925 
	C56.971817,53.392067 58.678627,53.873531 60.169361,53.873531 
	C60.270496,54.360043 60.371632,54.846554 60.472767,55.333069 
	C55.493530,58.223320 50.514290,61.113571 45.207424,64.168121 
z"/>
<path fill="#68C3C7" opacity="1.000000" stroke="none" 
	d="
M113.561035,59.535423 
	C108.758987,62.268173 104.273071,64.816513 99.770973,67.335938 
	C99.364540,67.563377 98.853691,67.604218 97.381058,67.040901 
	C98.205635,65.850975 98.763390,64.118942 99.898621,63.560184 
	C106.633095,60.245491 112.106224,53.994408 120.041016,53.416180 
	C120.321449,53.966404 120.601891,54.516624 120.882332,55.066849 
	C118.545822,56.492298 116.209305,57.917747 113.561035,59.535423 
z"/>
<path fill="#FB78BB" opacity="1.000000" stroke="none" 
	d="
M44.941124,90.083679 
	C44.941124,86.640045 44.941124,83.680733 44.941124,80.721413 
	C45.372749,80.563988 45.804375,80.406563 46.236000,80.249138 
	C46.913517,81.603210 48.150677,82.946182 48.177780,84.313148 
	C48.354424,93.221985 48.268551,102.136024 48.268551,111.170631 
	C44.941116,109.974655 44.941116,109.974655 44.941124,90.083679 
z"/>
<path fill="#FC79BB" opacity="1.000000" stroke="none" 
	d="
M25.153149,38.374966 
	C25.153349,46.968281 25.153349,55.105415 25.153349,63.242550 
	C24.767143,63.385845 24.380936,63.529144 23.994730,63.672440 
	C23.314169,62.470989 22.066263,61.280121 22.043625,60.066399 
	C21.876291,51.095196 21.953049,42.119442 21.953049,33.145115 
	C22.458740,32.990681 22.964432,32.836246 23.470125,32.681812 
	C24.031067,34.427471 24.592009,36.173126 25.153149,38.374966 
z"/>
<path fill="#FB78BB" opacity="1.000000" stroke="none" 
	d="
M78.087204,57.524826 
	C75.524841,59.731750 75.010468,57.904152 74.993561,56.057285 
	C74.909981,46.926109 74.955505,37.793758 74.955505,28.661821 
	C75.454735,28.504900 75.953964,28.347979 76.453194,28.191057 
	C77.019676,29.666599 78.047867,31.133434 78.075882,32.619129 
	C78.229538,40.766644 78.138023,48.918777 78.087204,57.524826 
z"/>
<path fill="#FC79BB" opacity="1.000000" stroke="none" 
	d="
M63.279350,32.120716 
	C63.279362,38.550701 63.279362,44.499985 63.279362,50.449268 
	C62.684719,50.578445 62.090080,50.707626 61.495438,50.836807 
	C60.978184,49.295792 59.917450,47.711655 60.035717,46.221062 
	C60.614937,38.920769 58.280441,31.252645 61.390789,24.251736 
	C62.020309,24.296865 62.649826,24.341993 63.279343,24.387123 
	C63.279343,26.804754 63.279343,29.222385 63.279350,32.120716 
z"/>
<path fill="#68C3C7" opacity="1.000000" stroke="none" 
	d="
M99.375000,55.247860 
	C102.647644,53.276928 105.544640,51.327736 108.644745,49.787331 
	C109.933601,49.146915 111.655869,49.378784 113.181053,49.213997 
	C113.370934,49.817059 113.560806,50.420116 113.750687,51.023178 
	C108.722321,53.891441 103.693947,56.759705 98.665581,59.627968 
	C98.305756,59.447475 97.945938,59.266979 97.586113,59.086487 
	C98.084511,57.869160 98.582901,56.651833 99.375000,55.247860 
z"/>
<path fill="#68C3C7" opacity="1.000000" stroke="none" 
	d="
M47.988228,49.908485 
	C49.855618,49.609657 51.403370,49.489712 52.951118,49.369770 
	C53.106899,49.935051 53.262680,50.500332 53.418461,51.065613 
	C48.339878,53.936890 43.261295,56.808167 37.934505,59.819771 
	C37.683899,56.054710 37.683899,56.054710 47.988228,49.908485 
z"/>
<path fill="#67C1C8" opacity="1.000000" stroke="none" 
	d="
M79.509277,101.498398 
	C81.003555,101.500259 82.186821,101.676270 83.370079,101.852280 
	C83.500771,102.326385 83.631462,102.800484 83.762146,103.274590 
	C78.708687,106.157204 73.655228,109.039818 68.430382,112.020195 
	C67.865860,108.226112 67.865860,108.226112 79.509277,101.498398 
z"/>
<path fill="#FA78BB" opacity="1.000000" stroke="none" 
	d="
M55.948349,29.756353 
	C55.978039,35.475380 55.978039,40.754517 55.978039,46.033653 
	C55.667423,46.224838 55.356812,46.416027 55.046196,46.607216 
	C54.281849,45.613743 52.922241,44.657173 52.857952,43.620296 
	C52.602768,39.504646 52.603294,35.353359 52.894218,31.242535 
	C52.944450,30.532719 54.863068,29.955130 55.948349,29.756353 
z"/>
<path fill="#FA78BB" opacity="1.000000" stroke="none" 
	d="
M116.285828,36.110924 
	C116.285835,39.705235 116.285835,42.825764 116.285835,45.946289 
	C115.826164,46.100868 115.366493,46.255451 114.906822,46.410030 
	C114.254181,45.249996 113.166679,44.142502 113.019150,42.921440 
	C112.027412,34.713047 112.883049,30.288548 116.285812,28.009169 
	C116.285812,30.865057 116.285812,33.251095 116.285828,36.110924 
z"/>
<path fill="#FA78BC" opacity="1.000000" stroke="none" 
	d="
M82.950775,95.445312 
	C82.924438,82.758949 82.924438,82.758949 85.799316,80.636269 
	C85.799316,86.763252 85.799316,92.547440 85.799316,99.654945 
	C84.433357,97.843735 83.696327,96.866470 82.950775,95.445312 
z"/>
<path fill="#000000" opacity="1.000000" stroke="none" 
	d="
M458.998901,60.335114 
	C458.900818,63.768803 459.268097,66.858917 458.617615,69.717422 
	C456.444183,79.268372 449.128479,82.511734 442.172607,81.960869 
	C435.587952,81.439400 429.375580,74.267769 429.097260,66.497421 
	C428.957733,62.601566 429.339355,58.570316 430.243042,54.781017 
	C431.622040,48.998741 436.418976,45.483372 442.443726,45.006271 
	C449.302765,44.463108 454.340454,47.098782 456.922211,52.902863 
	C457.900818,55.102856 458.322449,57.550602 458.998901,60.335114 
z"/>
<path fill="#000000" opacity="1.000000" stroke="none" 
	d="
M184.520996,70.505569 
	C187.995972,70.120720 191.135223,70.031631 194.274933,70.011948 
	C197.781357,69.989975 200.038834,71.692749 199.912140,75.261658 
	C199.791275,78.667160 198.730179,81.842026 194.393616,81.980621 
	C191.914612,82.059845 189.430832,82.009529 186.949539,81.985352 
	C186.153976,81.977600 185.359406,81.866783 184.185501,81.772789 
	C184.185501,77.994972 184.185501,74.413467 184.520996,70.505569 
z"/>
<path fill="#000000" opacity="1.000000" stroke="none" 
	d="
M184.020111,54.733788 
	C184.006714,51.445065 184.006714,48.621197 184.006714,45.003494 
	C188.728546,45.894382 194.026794,42.513729 197.355911,47.399956 
	C198.461365,49.022476 197.360107,53.335281 195.827866,55.288761 
	C193.553818,58.187969 186.565948,57.631222 184.020111,54.733788 
z"/>
<path fill="#000000" opacity="1.000000" stroke="none" 
	d="
M258.562317,59.957561 
	C256.978088,59.985561 255.821320,59.985561 254.332245,59.985561 
	C254.332245,55.064953 254.332245,50.340324 254.332245,45.000938 
	C256.160065,45.000938 257.924683,45.041332 259.686920,44.992783 
	C263.724670,44.881535 266.384521,46.668488 266.936768,50.732410 
	C267.486206,54.775486 266.053467,57.836746 261.745483,58.973278 
	C260.808075,59.220589 259.907379,59.607143 258.562317,59.957561 
z"/>
</svg>