<?xml version="1.0" encoding="UTF-8"?>
<svg version="1.1" xmlns="http://www.w3.org/2000/svg" width="473" height="125">
<path d="M0 0 C1.91450353 0.97218469 3.79059538 2.02195743 5.6328125 3.125 C6.68597656 3.74890625 7.73914062 4.3728125 8.82421875 5.015625 C10.45810547 5.99789063 10.45810547 5.99789063 12.125 7 C14.29283379 8.29407704 16.46204198 9.5858553 18.6328125 10.875 C19.59074707 11.44992187 20.54868164 12.02484375 21.53564453 12.6171875 C24.01283012 14.10897686 24.01283012 14.10897686 27 15 C29.60636969 13.8570771 29.60636969 13.8570771 32.40234375 12.10546875 C33.45744141 11.47962891 34.51253906 10.85378906 35.59960938 10.20898438 C37.25186523 9.20834961 37.25186523 9.20834961 38.9375 8.1875 C41.11277118 6.88846841 43.28853262 5.59025733 45.46484375 4.29296875 C46.91298462 3.41934692 46.91298462 3.41934692 48.39038086 2.52807617 C49.25155518 2.02381104 50.11272949 1.5195459 51 1 C52.0065564 0.37218628 52.0065564 0.37218628 53.03344727 -0.26831055 C55.79003156 -1.2939447 57.20230522 -0.89115562 60 0 C62.22882305 1.11824591 64.41878941 2.31534488 66.578125 3.5625 C67.49618927 4.08952515 67.49618927 4.08952515 68.43280029 4.62719727 C70.37571004 5.74494904 72.3127363 6.87249712 74.25 8 C75.56735859 8.75842031 76.88506355 9.51623934 78.203125 10.2734375 C87.8145507 15.8145507 87.8145507 15.8145507 89 17 C89.388604 22.03741808 89.48518418 27.0760337 89.56982422 32.12670898 C89.60642567 33.82543721 89.66094039 35.52387963 89.73388672 37.22143555 C90.32633493 51.21768326 90.32633493 51.21768326 87.3190918 55.25878906 C84.95371848 56.85368162 82.6331522 57.90837757 80 59 C78.25677624 60.04511042 76.52893294 61.1162516 74.81640625 62.2109375 C73.06649493 63.26793092 71.31518377 64.32261019 69.5625 65.375 C68.66595703 65.92027344 67.76941406 66.46554688 66.84570312 67.02734375 C65.99041016 67.54167969 65.13511719 68.05601563 64.25390625 68.5859375 C63.48377197 69.0504834 62.7136377 69.5150293 61.92016602 69.99365234 C60 71 60 71 58 71 C58 82.88 58 94.76 58 107 C46.9375 113.25 46.9375 113.25 43.49194336 115.19628906 C42.11727905 115.97311035 42.11727905 115.97311035 40.71484375 116.765625 C39.72468262 117.32056641 38.73452148 117.87550781 37.71435547 118.44726562 C36.07981885 119.38229466 34.45882835 120.34252311 32.86767578 121.34960938 C28.58681588 124.04646988 28.58681588 124.04646988 25.72167969 123.81958008 C22.32554143 122.79690012 19.42498675 121.18835407 16.38671875 119.40234375 C14.70002075 118.43155884 14.70002075 118.43155884 12.97924805 117.44116211 C11.56297119 116.61495361 10.14669434 115.78874512 8.6875 114.9375 C4.170625 112.318125 -0.34625 109.69875 -5 107 C-5 95.12 -5 83.24 -5 71 C-6.65 70.34 -8.3 69.68 -10 69 C-12.07610567 67.87281925 -14.13340121 66.71063378 -16.17578125 65.5234375 C-16.74580368 65.19332672 -17.31582611 64.86321594 -17.90312195 64.52310181 C-19.70808352 63.47685993 -21.51031402 62.42601425 -23.3125 61.375 C-24.54213964 60.66115152 -25.77195562 59.94760669 -27.00195312 59.234375 C-30.00334992 57.49309126 -33.00231667 55.74767064 -36 54 C-36.32320225 48.87772237 -36.55796968 43.76144152 -36.71411133 38.63134766 C-36.77920754 36.89038738 -36.86773109 35.1501306 -36.98071289 33.41162109 C-37.70719367 21.93914178 -37.70719367 21.93914178 -36 17 C-32.22039061 12.99020176 -28.02264249 11.12489605 -23 9 C-21.30686072 8.02609356 -19.62743315 7.02759002 -17.96875 5.99609375 C-16.48073961 5.14048778 -14.99119908 4.28753636 -13.5 3.4375 C-12.74203125 2.98826172 -11.9840625 2.53902344 -11.203125 2.07617188 C-10.09710937 1.4487207 -10.09710937 1.4487207 -8.96875 0.80859375 C-8.32357422 0.43532959 -7.67839844 0.06206543 -7.01367188 -0.32250977 C-4.26376297 -1.24770341 -2.76213572 -0.85743778 0 0 Z " fill="#1E4BD5" transform="translate(38,1)"/>
<path d="M0 0 C36.5625 0 36.5625 0 44 7 C47.18077626 11.77116438 47.39828508 16.32443767 47 22 C45.625 25.1875 45.625 25.1875 44 28 C43.608125 28.78375 43.21625 29.5675 42.8125 30.375 C42.544375 30.91125 42.27625 31.4475 42 32 C42.804375 32.78375 43.60875 33.5675 44.4375 34.375 C48.65672983 38.69713787 48.39696337 42.0082208 48.34765625 47.8828125 C47.6886336 53.79180211 44.70753954 57.33624353 40.5625 61.375 C28.42202357 69.07383871 14.13706992 65 0 65 C0 43.55 0 22.1 0 0 Z M16 14 C16 17.96 16 21.92 16 26 C17.5675 26.061875 19.135 26.12375 20.75 26.1875 C21.63171875 26.22230469 22.5134375 26.25710937 23.421875 26.29296875 C26.51307748 25.94169574 27.82107042 25.19901188 30 23 C30.50007794 19.45786015 30.50007794 19.45786015 30 16 C28.1371051 13.69939466 28.1371051 13.69939466 25.1796875 13.8046875 C20.58984375 13.90234375 20.58984375 13.90234375 16 14 Z M16 39 C16 42.96 16 46.92 16 51 C18.10304477 51.1080023 20.20766909 51.18558987 22.3125 51.25 C23.48425781 51.29640625 24.65601563 51.3428125 25.86328125 51.390625 C29.04804923 51.30361377 29.04804923 51.30361377 30.9296875 49.21484375 C32.53049452 45.90222485 31.85634172 43.49123931 31 40 C28.11584117 38.55792059 25.58278472 38.90605113 22.375 38.9375 C20.59222656 38.95103516 20.59222656 38.95103516 18.7734375 38.96484375 C17.40058594 38.98224609 17.40058594 38.98224609 16 39 Z " fill="#1548D7" transform="translate(167,30)"/>
<path d="M0 0 C5.98349026 4.91975866 11.27426931 10.21238897 12.11889648 18.21582031 C12.1891875 21.66511986 12.23339571 25.11249777 12.25 28.5625 C12.28287109 29.75230469 12.31574219 30.94210938 12.34960938 32.16796875 C12.4042363 41.15658155 10.69343536 46.82279046 4.8203125 53.6171875 C-2.91627649 60.06969533 -10.31666047 62.72539071 -20.4375 62.58984375 C-29.42798743 61.68313266 -37.79985569 57.42187171 -43.68359375 50.5703125 C-49.53362527 42.2032051 -50.88456694 32.3796845 -49.75390625 22.41796875 C-48.2087124 13.94604385 -44.80893623 6.95576951 -38.1875 1.3125 C-25.95688972 -6.36985208 -12.78221242 -6.76705363 0 0 Z M-28.1875 13.3125 C-33.39619754 19.92895363 -33.96565985 26.08623869 -33.1875 34.3125 C-31.96444936 39.17523146 -30.22129556 43.07141755 -25.9375 45.875 C-22.08577371 47.64892938 -18.34494959 48.21354421 -14.1875 47.3125 C-9.70933025 45.498761 -6.87227132 43.33965698 -4.1875 39.3125 C-1.92312744 32.54898196 -1.90719543 24.16732124 -4.9375 17.6875 C-7.32971912 13.67229123 -9.74641913 11.79286029 -14.1875 10.3125 C-19.77169173 9.94632349 -23.41397798 10.0578259 -28.1875 13.3125 Z " fill="#1548D7" transform="translate(461.1875,33.6875)"/>
<path d="M0 0 C33.17948718 0 33.17948718 0 40.9375 6.4375 C44.94734548 11.41942924 45.44219254 15.98422944 45.31640625 22.21484375 C44.52212131 29.20651241 40.93799854 33.23397156 36 38 C36.34256836 38.53367188 36.68513672 39.06734375 37.03808594 39.6171875 C38.61282541 42.07552488 40.18143548 44.53771848 41.75 47 C42.28882813 47.83917969 42.82765625 48.67835937 43.3828125 49.54296875 C46.58132183 54.57477001 49.43336106 59.61753388 52 65 C49.10190611 65.16250994 46.21295149 65.28107636 43.3125 65.375 C42.49587891 65.42527344 41.67925781 65.47554688 40.83789062 65.52734375 C36.35854804 65.63615369 34.63790789 65.58235973 31.21875 62.4609375 C30.44520036 61.32978624 29.70679029 60.17402287 29 59 C28.59740967 58.38366699 28.19481934 57.76733398 27.7800293 57.13232422 C26.53793574 55.19527601 25.35728322 53.23142982 24.1875 51.25 C23.57745117 50.24259766 23.57745117 50.24259766 22.95507812 49.21484375 C20 44.25825893 20 44.25825893 20 42 C18.68 42 17.36 42 16 42 C16 49.59 16 57.18 16 65 C10.72 65 5.44 65 0 65 C0 43.55 0 22.1 0 0 Z M16 14 C16 18.95 16 23.9 16 29 C22.13880639 28.7699047 22.13880639 28.7699047 27.5625 26.3125 C29.46538786 23.25133257 29.59075079 21.54450475 29 18 C27.69138543 15.44014926 27.69138543 15.44014926 25 14 C21.91795759 13.67110735 19.11605929 13.81670239 16 14 Z " fill="#1548D7" transform="translate(237,30)"/>
<path d="M0 0 C3.06627706 -0.21665549 6.11727238 -0.37459318 9.1875 -0.5 C10.05181641 -0.56703125 10.91613281 -0.6340625 11.80664062 -0.703125 C14.41720563 -0.78314232 16.48964001 -0.73449298 19 0 C21.36659055 2.35631182 22.64388623 4.97506528 24 8 C24.52207031 8.9796875 25.04414063 9.959375 25.58203125 10.96875 C26.72135417 13.3125 27.86067708 15.65625 29 18 C32.3 12.06 35.6 6.12 39 0 C44.94 0 50.88 0 57 0 C55.43215944 3.9196014 53.8988636 6.98566528 51.70703125 10.52734375 C51.07732422 11.56697266 50.44761719 12.60660156 49.79882812 13.67773438 C48.47315729 15.85329448 47.13716735 18.0225997 45.79101562 20.18554688 C45.16517578 21.22646484 44.53933594 22.26738281 43.89453125 23.33984375 C43.31550049 24.28206787 42.73646973 25.22429199 42.13989258 26.19506836 C40.70679051 29.72150008 40.94041544 31.36394888 42 35 C43.04334529 37.2538309 44.17862556 39.46630916 45.37890625 41.640625 C45.87619484 42.55300934 45.87619484 42.55300934 46.38352966 43.48382568 C47.43502836 45.41049219 48.49792382 47.33053324 49.5625 49.25 C50.6290123 51.18457018 51.69296543 53.12044626 52.75218201 55.059021 C53.70889939 56.80833215 54.67371197 58.55320868 55.63891602 60.29785156 C57 63 57 63 57 65 C54.08178537 65.13510253 51.16982348 65.2341305 48.25 65.3125 C47.425 65.35439453 46.6 65.39628906 45.75 65.43945312 C39.63937634 65.56265118 39.63937634 65.56265118 36.65625 62.9375 C34.75209891 59.56032637 32.92743489 56.18275596 31.25 52.6875 C30.93417969 52.04232422 30.61835938 51.39714844 30.29296875 50.73242188 C29.52308292 49.15765541 28.76075109 47.5791996 28 46 C27.70230713 46.54003662 27.40461426 47.08007324 27.09790039 47.63647461 C25.75452698 50.07112577 24.40854945 52.5043274 23.0625 54.9375 C22.59392578 55.78763672 22.12535156 56.63777344 21.64257812 57.51367188 C21.19462891 58.32255859 20.74667969 59.13144531 20.28515625 59.96484375 C19.87144775 60.7137085 19.45773926 61.46257324 19.03149414 62.23413086 C18 64 18 64 17 65 C14.13732433 65.07325168 11.299281 65.09238205 8.4375 65.0625 C7.63119141 65.05798828 6.82488281 65.05347656 5.99414062 65.04882812 C3.99606244 65.03700518 1.99802217 65.01906914 0 65 C1.32507037 60.63048576 3.040927 56.86966311 5.29296875 52.90234375 C5.92267578 51.77119141 6.55238281 50.64003906 7.20117188 49.47460938 C8.19593098 47.69813068 9.19492826 45.92447959 10.20385742 44.15600586 C11.18386591 42.43283815 12.14493752 40.6989439 13.10546875 38.96484375 C13.97401489 37.42751587 13.97401489 37.42751587 14.86010742 35.85913086 C16.18880603 32.52642805 16.1830392 31.34805922 15 28 C13.94053915 25.84602326 12.80545619 23.72853273 11.62109375 21.640625 C11.28956802 21.0507782 10.9580423 20.4609314 10.61647034 19.85321045 C9.56322214 17.98176855 8.50084137 16.11572235 7.4375 14.25 C6.37226659 12.36910351 5.30897473 10.48714226 4.24781799 8.60394287 C3.28931428 6.90474467 2.32532664 5.20864342 1.36108398 3.51269531 C0 1 0 1 0 0 Z " fill="#1548D6" transform="translate(343,30)"/>
<path d="M0 0 C5.28 0 10.56 0 16 0 C16 21.45 16 42.9 16 65 C10.72 65 5.44 65 0 65 C0 43.55 0 22.1 0 0 Z " fill="#1548D7" transform="translate(308,30)"/>
<path d="M0 0 C0.81549316 0.33922485 0.81549316 0.33922485 1.64746094 0.68530273 C1.64746094 1.67530273 1.64746094 2.66530273 1.64746094 3.68530273 C-1.93178221 5.67193457 -5.51659648 7.6482931 -9.10253906 9.62280273 C-10.62621094 10.46875 -10.62621094 10.46875 -12.18066406 11.33178711 C-13.16035156 11.8699707 -14.14003906 12.4081543 -15.14941406 12.96264648 C-16.05014648 13.46014404 -16.95087891 13.9576416 -17.87890625 14.47021484 C-20.06786993 15.54546872 -21.97124168 16.21633294 -24.35253906 16.68530273 C-25.01253906 15.69530273 -25.67253906 14.70530273 -26.35253906 13.68530273 C-22.44775814 11.31097851 -18.52698818 8.96445058 -14.60253906 6.62280273 C-13.49136719 5.94668945 -12.38019531 5.27057617 -11.23535156 4.57397461 C-10.16542969 3.93911133 -9.09550781 3.30424805 -7.99316406 2.65014648 C-7.00864258 2.05838623 -6.02412109 1.46662598 -5.00976562 0.85693359 C-2.35253906 -0.31469727 -2.35253906 -0.31469727 0 0 Z " fill="#ECAB9A" transform="translate(87.3525390625,69.314697265625)"/>
<path d="M0 0 C0 0.66 0 1.32 0 2 C-3.55996182 3.96297379 -7.12339831 5.91955438 -10.6875 7.875 C-12.19860352 8.70837891 -12.19860352 8.70837891 -13.74023438 9.55859375 C-15.20493164 10.36103516 -15.20493164 10.36103516 -16.69921875 11.1796875 C-17.59471436 11.67194824 -18.49020996 12.16420898 -19.4128418 12.67138672 C-21.8975149 13.94736964 -24.39037217 15.00879384 -27 16 C-27.66 15.01 -28.32 14.02 -29 13 C-24.68727474 10.29854729 -20.35409241 7.63401629 -16 5 C-14.96488281 4.37222656 -13.92976563 3.74445312 -12.86328125 3.09765625 C-11.44595703 2.27587891 -11.44595703 2.27587891 -10 1.4375 C-9.154375 0.94121094 -8.30875 0.44492187 -7.4375 -0.06640625 C-4.52321879 -1.18261332 -2.94912651 -0.87947166 0 0 Z " fill="#ECAB9A" transform="translate(60,18)"/>
<path d="M0 0 C1.32 0.33 2.64 0.66 4 1 C4 11.23 4 21.46 4 32 C2.68 31.34 1.36 30.68 0 30 C0 20.1 0 10.2 0 0 Z " fill="#EC75BD" transform="translate(59,88)"/>
<path d="M0 0 C1.32 0.33 2.64 0.66 4 1 C4 11.23 4 21.46 4 32 C2.68 31.34 1.36 30.68 0 30 C0 20.1 0 10.2 0 0 Z " fill="#EC75BD" transform="translate(6,23)"/>
<path d="M0 0 C0 0.66 0 1.32 0 2 C-3.47544861 4.05104702 -6.96241573 6.08070502 -10.46142578 8.09130859 C-11.65000563 8.77823831 -12.83527683 9.47092626 -14.01708984 10.16943359 C-15.71612391 11.17230593 -17.42824779 12.15289722 -19.140625 13.1328125 C-20.16704102 13.72980957 -21.19345703 14.32680664 -22.25097656 14.94189453 C-25 16 -25 16 -27.36621094 15.17919922 C-27.90536133 14.79006348 -28.44451172 14.40092773 -29 14 C-25.24586122 9.90374651 -20.38972142 7.50581185 -15.625 4.75 C-14.67882812 4.1828125 -13.73265625 3.615625 -12.7578125 3.03125 C-11.84 2.50015625 -10.9221875 1.9690625 -9.9765625 1.421875 C-9.14205566 0.93299805 -8.30754883 0.44412109 -7.44775391 -0.05957031 C-4.52595858 -1.18212722 -2.95795485 -0.88019446 0 0 Z " fill="#EDAB9A" transform="translate(120,18)"/>
<path d="M0 0 C1.32 0.33 2.64 0.66 4 1 C4 11.23 4 21.46 4 32 C2.68 31.34 1.36 30.68 0 30 C0 20.1 0 10.2 0 0 Z " fill="#ED75BC" transform="translate(36,75)"/>
<path d="M0 0 C1.98 0.99 1.98 0.99 4 2 C4 11.9 4 21.8 4 32 C2.68 31.67 1.36 31.34 0 31 C0 20.77 0 10.54 0 0 Z " fill="#D771BF" transform="translate(51,83)"/>
<path d="M0 0 C1.32 0.33 2.64 0.66 4 1 C4 10.9 4 20.8 4 31 C2.68 30.67 1.36 30.34 0 30 C0 20.1 0 10.2 0 0 Z " fill="#E674BD" transform="translate(89,36)"/>
<path d="M0 0 C1.32 0.33 2.64 0.66 4 1 C4 11.23 4 21.46 4 32 C2.68 31.34 1.36 30.68 0 30 C0 20.1 0 10.2 0 0 Z " fill="#F577BC" transform="translate(66,23)"/>
<path d="M0 0 C0 0.66 0 1.32 0 2 C-3.47544861 4.05104702 -6.96241573 6.08070502 -10.46142578 8.09130859 C-11.65000563 8.77823831 -12.83527683 9.47092626 -14.01708984 10.16943359 C-15.71612391 11.17230593 -17.42824779 12.15289722 -19.140625 13.1328125 C-20.16704102 13.72980957 -21.19345703 14.32680664 -22.25097656 14.94189453 C-25 16 -25 16 -27.36621094 15.17919922 C-27.90536133 14.79006348 -28.44451172 14.40092773 -29 14 C-23.41628497 10.04486852 -17.60375556 6.49239816 -11.6875 3.0625 C-10.64722656 2.44193726 -10.64722656 2.44193726 -9.5859375 1.80883789 C-4.02344439 -1.36731867 -4.02344439 -1.36731867 0 0 Z " fill="#E8A99B" transform="translate(105,9)"/>
<path d="M0 0 C0.59296875 0.20367187 1.1859375 0.40734375 1.796875 0.6171875 C1.796875 1.2771875 1.796875 1.9371875 1.796875 2.6171875 C-1.94111681 5.28675514 -5.98482634 7.49590046 -9.953125 9.8046875 C-11.06429688 10.47177734 -12.17546875 11.13886719 -13.3203125 11.82617188 C-14.39023437 12.45201172 -15.46015625 13.07785156 -16.5625 13.72265625 C-17.54702148 14.30168701 -18.53154297 14.88071777 -19.54589844 15.47729492 C-22.203125 16.6171875 -22.203125 16.6171875 -24.55566406 16.2980957 C-25.09932617 16.073396 -25.64298828 15.84869629 -26.203125 15.6171875 C-26.203125 14.9571875 -26.203125 14.2971875 -26.203125 13.6171875 C-25.1409375 13.02550781 -24.07875 12.43382812 -22.984375 11.82421875 C-21.55716709 11.02626444 -20.1300922 10.22807219 -18.703125 9.4296875 C-17.60242676 8.81601318 -17.60242676 8.81601318 -16.47949219 8.18994141 C-12.71070946 6.076175 -9.03922389 3.90801366 -5.453125 1.4921875 C-2.203125 -0.3828125 -2.203125 -0.3828125 0 0 Z " fill="#E8A99B" transform="translate(42.203125,8.3828125)"/>
<path d="M0 0 C0.556875 0.226875 1.11375 0.45375 1.6875 0.6875 C1.6875 1.3475 1.6875 2.0075 1.6875 2.6875 C-2.08090198 4.83762454 -5.85262276 6.98185886 -9.625 9.125 C-11.2327832 10.04249023 -11.2327832 10.04249023 -12.87304688 10.97851562 C-13.90107422 11.56181641 -14.92910156 12.14511719 -15.98828125 12.74609375 C-17.4100769 13.55518188 -17.4100769 13.55518188 -18.8605957 14.38061523 C-21.3125 15.6875 -21.3125 15.6875 -24.3125 16.6875 C-24.9725 16.3575 -25.6325 16.0275 -26.3125 15.6875 C-25.1393432 12.16802961 -24.5919325 11.9940544 -21.453125 10.3125 C-20.66679688 9.88453125 -19.88046875 9.4565625 -19.0703125 9.015625 C-18.24273437 8.57734375 -17.41515625 8.1390625 -16.5625 7.6875 C-14.94236268 6.81314018 -13.32256189 5.93815643 -11.703125 5.0625 C-10.55686646 4.45015503 -10.55686646 4.45015503 -9.38745117 3.82543945 C-7.6856072 2.8921185 -6.02521408 1.88358909 -4.37890625 0.85546875 C-2.3125 -0.3125 -2.3125 -0.3125 0 0 Z " fill="#EBAA9A" transform="translate(95.3125,4.3125)"/>
<path d="M0 0 C0.55486084 0.38244873 1.10972168 0.76489746 1.68139648 1.15893555 C-2.81524807 5.01978405 -7.72932594 7.97476292 -12.81860352 10.97143555 C-13.66036133 11.48641602 -14.50211914 12.00139648 -15.36938477 12.53198242 C-16.18793945 13.01344727 -17.00649414 13.49491211 -17.84985352 13.9909668 C-18.5878418 14.43158447 -19.32583008 14.87220215 -20.08618164 15.32617188 C-22.86730696 16.36361921 -24.50646803 15.96368364 -27.31860352 15.15893555 C-23.4153148 10.89519538 -18.29298108 8.29482073 -13.38110352 5.34643555 C-12.37885742 4.72317383 -11.37661133 4.09991211 -10.34399414 3.45776367 C-9.3778418 2.87833008 -8.41168945 2.29889648 -7.41625977 1.7019043 C-6.09380249 0.89789185 -6.09380249 0.89789185 -4.74462891 0.07763672 C-2.31860352 -0.84106445 -2.31860352 -0.84106445 0 0 Z " fill="#EBAA9A" transform="translate(73.318603515625,60.841064453125)"/>
<path d="M0 0 C2.203125 0.88671875 2.203125 0.88671875 4 2 C-0.50804166 5.87858205 -5.44977567 8.8180712 -10.5625 11.8125 C-11.83770508 12.5849707 -11.83770508 12.5849707 -13.13867188 13.37304688 C-13.96044922 13.85451172 -14.78222656 14.33597656 -15.62890625 14.83203125 C-16.37213135 15.27264893 -17.11535645 15.7132666 -17.88110352 16.16723633 C-20.38011522 17.14939198 -21.52020967 16.91261052 -24 16 C-24 15.34 -24 14.68 -24 14 C-22.9378125 13.40832031 -21.875625 12.81664062 -20.78125 12.20703125 C-19.35411395 11.40894843 -17.92703419 10.61076494 -16.5 9.8125 C-15.76620117 9.40410889 -15.03240234 8.99571777 -14.27636719 8.57495117 C-10.49081289 6.45472124 -6.82907975 4.27140975 -3.25 1.8125 C-2.1775 1.214375 -1.105 0.61625 0 0 Z " fill="#EBAA9A" transform="translate(108,12)"/>
<path d="M0 0 C-4.26423359 4.55166861 -9.18328761 7.25059855 -14.5625 10.3125 C-15.52091797 10.87517578 -16.47933594 11.43785156 -17.46679688 12.01757812 C-18.38654297 12.54416016 -19.30628906 13.07074219 -20.25390625 13.61328125 C-21.09252197 14.09579346 -21.9311377 14.57830566 -22.79516602 15.07543945 C-25 16 -25 16 -28 15 C-26.23026715 9.69080145 -20.38573306 7.88055794 -15.6875 5.25 C-14.62853516 4.63511719 -13.56957031 4.02023438 -12.47851562 3.38671875 C-11.45822266 2.81050781 -10.43792969 2.23429688 -9.38671875 1.640625 C-8.45045654 1.10985352 -7.51419434 0.57908203 -6.54956055 0.03222656 C-3.77953076 -1.08926017 -2.72751943 -1.09052736 0 0 Z " fill="#EBAA9A" transform="translate(37,5)"/>
<path d="M0 0 C0.99 0.33 1.98 0.66 3 1 C3 1.66 3 2.32 3 3 C-0.73799181 5.66956764 -4.78170134 7.87871296 -8.75 10.1875 C-9.86117187 10.85458984 -10.97234375 11.52167969 -12.1171875 12.20898438 C-13.18710937 12.83482422 -14.25703125 13.46066406 -15.359375 14.10546875 C-16.34389648 14.68449951 -17.32841797 15.26353027 -18.34277344 15.86010742 C-21 17 -21 17 -23.35253906 16.6809082 C-23.89620117 16.4562085 -24.43986328 16.23150879 -25 16 C-25 15.34 -25 14.68 -25 14 C-21.2087859 11.85336633 -17.41695268 9.70782868 -13.625 7.5625 C-12.54476562 6.95083984 -11.46453125 6.33917969 -10.3515625 5.70898438 C-9.3203125 5.12568359 -8.2890625 4.54238281 -7.2265625 3.94140625 C-6.27346191 3.40201416 -5.32036133 2.86262207 -4.33837891 2.30688477 C-2.90865767 1.50783509 -1.46494593 0.73247296 0 0 Z " fill="#EBAB9A" transform="translate(64,56)"/>
<path d="M0 0 C2.3125 0.8125 2.3125 0.8125 4 2 C-0.33783081 5.75945337 -5.05868113 8.43721699 -10.0625 11.1875 C-11.26616211 11.86329102 -11.26616211 11.86329102 -12.49414062 12.55273438 C-13.65913086 13.19758789 -13.65913086 13.19758789 -14.84765625 13.85546875 C-15.54898682 14.24371826 -16.25031738 14.63196777 -16.97290039 15.03198242 C-19.01944961 16.00928793 -20.74739167 16.70902704 -23 17 C-23.66 16.34 -24.32 15.68 -25 15 C-18.33333333 11 -11.66666667 7 -5 3 C-4.12239014 2.42805908 -3.24478027 1.85611816 -2.34057617 1.2668457 C-1.56818604 0.84878662 -0.7957959 0.43072754 0 0 Z " fill="#ECAB9A" transform="translate(48,12)"/>
<path d="M0 0 C0.99 0 1.98 0 3 0 C3 8.91 3 17.82 3 27 C1.68 26.67 0.36 26.34 -1 26 C-1.02886751 21.85418113 -1.04675327 17.70838784 -1.0625 13.5625 C-1.07087891 12.37849609 -1.07925781 11.19449219 -1.08789062 9.97460938 C-1.09111328 8.84990234 -1.09433594 7.72519531 -1.09765625 6.56640625 C-1.10289307 5.52427979 -1.10812988 4.48215332 -1.11352539 3.40844727 C-1 1 -1 1 0 0 Z " fill="#DE72BE" transform="translate(120,23)"/>
<path d="M0 0 C0 8.91 0 17.82 0 27 C-1.32 26.67 -2.64 26.34 -4 26 C-4 17.75 -4 9.5 -4 1 C-2 0 -2 0 0 0 Z " fill="#D771BF" transform="translate(93,75)"/>
<path d="M0 0 C-3.76148256 4.11176061 -8.65437418 6.49656644 -13.4375 9.25 C-14.86932617 10.10078125 -14.86932617 10.10078125 -16.33007812 10.96875 C-17.25111328 11.49984375 -18.17214844 12.0309375 -19.12109375 12.578125 C-19.9608374 13.06700195 -20.80058105 13.55587891 -21.66577148 14.05957031 C-24.3044959 15.12267736 -25.38766175 15.00384826 -28 14 C-24.24258821 9.63890432 -19.47400114 7.05099081 -14.5625 4.1875 C-13.2930957 3.4150293 -13.2930957 3.4150293 -11.99804688 2.62695312 C-11.17498047 2.14548828 -10.35191406 1.66402344 -9.50390625 1.16796875 C-8.75955322 0.72735107 -8.0152002 0.2867334 -7.24829102 -0.16723633 C-4.4584112 -1.20060369 -2.81893396 -0.80749258 0 0 Z " fill="#EEAC99" transform="translate(82,66)"/>
<path d="M0 0 C0.99 0.33 1.98 0.66 3 1 C3 11.23 3 21.46 3 32 C2.01 31.67 1.02 31.34 0 31 C0 20.77 0 10.54 0 0 Z " fill="#FB78BB" transform="translate(44,79)"/>
<path d="M0 0 C0.99 0.33 1.98 0.66 3 1 C3 11.23 3 21.46 3 32 C2.01 31.34 1.02 30.68 0 30 C-0.34057617 27.01904297 -0.34057617 27.01904297 -0.29296875 23.2421875 C-0.28872391 22.57913605 -0.28447906 21.91608459 -0.28010559 21.23294067 C-0.26329971 19.11321559 -0.22564701 16.99443812 -0.1875 14.875 C-0.17245549 13.43881581 -0.15876668 12.00261672 -0.14648438 10.56640625 C-0.1133909 7.04396236 -0.0615968 3.52207364 0 0 Z " fill="#FA78BB" transform="translate(74,27)"/>
<path d="M0 0 C0.99 0.33 1.98 0.66 3 1 C3 11.23 3 21.46 3 32 C2.01 31.67 1.02 31.34 0 31 C0 20.77 0 10.54 0 0 Z " fill="#FB78BB" transform="translate(14,27)"/>
<path d="M0 0 C0 0.66 0 1.32 0 2 C-2.60878222 3.42297212 -5.2177931 4.84549625 -7.828125 6.265625 C-9.92668853 7.4131154 -12.02054991 8.56925146 -14.109375 9.734375 C-15.57117188 10.54648437 -15.57117188 10.54648437 -17.0625 11.375 C-17.96097656 11.87773438 -18.85945313 12.38046875 -19.78515625 12.8984375 C-22 14 -22 14 -24 14 C-23.63324374 11.41644437 -23.30567755 10.26819798 -21.31347656 8.52026367 C-18.96756962 7.06026608 -16.62056656 5.60725521 -14.25 4.1875 C-13.43789063 3.67251953 -12.62578125 3.15753906 -11.7890625 2.62695312 C-10.99757813 2.14548828 -10.20609375 1.66402344 -9.390625 1.16796875 C-8.66907227 0.72735107 -7.94751953 0.2867334 -7.20410156 -0.16723633 C-4.43855135 -1.21212908 -2.80016845 -0.79956543 0 0 Z " fill="#68C4C7" transform="translate(60,53)"/>
<path d="M0 0 C0.99 0.33 1.98 0.66 3 1 C3 10.9 3 20.8 3 31 C2.01 30.67 1.02 30.34 0 30 C0 20.1 0 10.2 0 0 Z " fill="#FC78BB" transform="translate(29,36)"/>
<path d="M0 0 C1.485 0.99 1.485 0.99 3 2 C3.34057617 4.98095703 3.34057617 4.98095703 3.29296875 8.7578125 C3.28872391 9.42086395 3.28447906 10.08391541 3.28010559 10.76705933 C3.26329971 12.88678441 3.22564701 15.00556188 3.1875 17.125 C3.17245549 18.56118419 3.15876668 19.99738328 3.14648438 21.43359375 C3.1133909 24.95603764 3.0615968 28.47792636 3 32 C2.01 31.67 1.02 31.34 0 31 C0 20.77 0 10.54 0 0 Z " fill="#FB78BB" transform="translate(21,31)"/>
<path d="M0 0 C-3.66121858 4.281425 -8.24989764 6.60065527 -13.125 9.25 C-13.94871094 9.70890625 -14.77242187 10.1678125 -15.62109375 10.640625 C-21.72995722 14 -21.72995722 14 -24 14 C-23.64491136 11.33522929 -23.31457772 10.25944422 -21.20581055 8.52026367 C-20.44051025 8.07400635 -19.67520996 7.62774902 -18.88671875 7.16796875 C-18.05076172 6.68005859 -17.21480469 6.19214844 -16.35351562 5.68945312 C-15.47373047 5.19380859 -14.59394531 4.69816406 -13.6875 4.1875 C-12.81931641 3.67251953 -11.95113281 3.15753906 -11.05664062 2.62695312 C-3.93528115 -1.45566816 -3.93528115 -1.45566816 0 0 Z " fill="#69C4C7" transform="translate(120,53)"/>
<path d="M0 0 C0.99 0.33 1.98 0.66 3 1 C3 10.9 3 20.8 3 31 C2.01 30.67 1.02 30.34 0 30 C0 20.1 0 10.2 0 0 Z " fill="#FD78BB" transform="translate(82,32)"/>
<path d="M0 0 C0.8971875 0.309375 0.8971875 0.309375 1.8125 0.625 C1.8125 1.285 1.8125 1.945 1.8125 2.625 C-1.64184314 4.63195291 -5.1016063 6.62936779 -8.5625 8.625 C-9.54734375 9.19734375 -10.5321875 9.7696875 -11.546875 10.359375 C-12.95839844 11.17148438 -12.95839844 11.17148438 -14.3984375 12 C-15.26774902 12.50273438 -16.13706055 13.00546875 -17.03271484 13.5234375 C-19.1875 14.625 -19.1875 14.625 -21.1875 14.625 C-21.1875 13.305 -21.1875 11.985 -21.1875 10.625 C-20.06730469 9.99851562 -18.94710937 9.37203125 -17.79296875 8.7265625 C-16.32027713 7.90110477 -14.84762282 7.07558046 -13.375 6.25 C-12.63701172 5.8375 -11.89902344 5.425 -11.13867188 5 C-10.42646484 4.60039063 -9.71425781 4.20078125 -8.98046875 3.7890625 C-8.3258667 3.42248535 -7.67126465 3.0559082 -6.99682617 2.67822266 C-1.85085134 -0.3172888 -1.85085134 -0.3172888 0 0 Z " fill="#69C5C7" transform="translate(88.1875,104.375)"/>
<path d="M0 0 C0.66 0 1.32 0 2 0 C2 8.91 2 17.82 2 27 C1.01 26.67 0.02 26.34 -1 26 C-1.02886751 21.85418113 -1.04675327 17.70838784 -1.0625 13.5625 C-1.07087891 12.37849609 -1.07925781 11.19449219 -1.08789062 9.97460938 C-1.09111328 8.84990234 -1.09433594 7.72519531 -1.09765625 6.56640625 C-1.10289307 5.52427979 -1.10812988 4.48215332 -1.11352539 3.40844727 C-1 1 -1 1 0 0 Z " fill="#FB78BB" transform="translate(60,23)"/>
<path d="M0 0 C-2.61227152 2.95814719 -5.66570307 4.71876108 -9.0625 6.6875 C-10.12597656 7.31011719 -11.18945312 7.93273438 -12.28515625 8.57421875 C-15 10 -15 10 -17 10 C-17 8.68 -17 7.36 -17 6 C-14.55078125 4.04296875 -14.55078125 4.04296875 -11.3125 2.1875 C-10.25675781 1.56230469 -9.20101562 0.93710937 -8.11328125 0.29296875 C-4.76050499 -1.09946405 -3.38602676 -1.12448755 0 0 Z " fill="#67C2C7" transform="translate(53,49)"/>
<path d="M0 0 C-2.63076871 2.99999941 -5.74179832 4.72382055 -9.1875 6.6875 C-10.27417969 7.31011719 -11.36085938 7.93273438 -12.48046875 8.57421875 C-13.31191406 9.04472656 -14.14335938 9.51523437 -15 10 C-15.33 8.68 -15.66 7.36 -16 6 C-14.28336882 4.79444991 -12.55111532 3.61112276 -10.8125 2.4375 C-9.84957031 1.77621094 -8.88664062 1.11492188 -7.89453125 0.43359375 C-4.63481317 -1.18086851 -3.38479047 -1.13238877 0 0 Z " fill="#69C5C7" transform="translate(113,49)"/>
<path d="M0 0 C0.79857422 0.59167969 0.79857422 0.59167969 1.61328125 1.1953125 C-0.46609824 2.51445642 -2.54979894 3.82569463 -4.63671875 5.1328125 C-5.22324219 5.50599609 -5.80976562 5.87917969 -6.4140625 6.26367188 C-9.3457814 8.0918786 -11.94152104 9.65806632 -15.38671875 10.1953125 C-15.25 8.4375 -15.25 8.4375 -14.38671875 6.1953125 C-11.8046875 4.203125 -11.8046875 4.203125 -8.57421875 2.3203125 C-7.51589844 1.68351562 -6.45757812 1.04671875 -5.3671875 0.390625 C-2.38671875 -0.8046875 -2.38671875 -0.8046875 0 0 Z " fill="#69C5C7" transform="translate(81.38671875,100.8046875)"/>
<path d="M0 0 C0.66 0 1.32 0 2 0 C2 6.27 2 12.54 2 19 C1.01 18.67 0.02 18.34 -1 18 C-1.02684312 15.18743719 -1.04676188 12.37512759 -1.0625 9.5625 C-1.07087891 8.76005859 -1.07925781 7.95761719 -1.08789062 7.13085938 C-1.0965143 5.08704779 -1.0522815 3.04316098 -1 1 C-0.67 0.67 -0.34 0.34 0 0 Z " fill="#FA78BB" transform="translate(53,27)"/>
<path d="M0 0 C0 6.27 0 12.54 0 19 C-0.99 18.67 -1.98 18.34 -3 18 C-3 12.39 -3 6.78 -3 1 C-1 0 -1 0 0 0 Z " fill="#F978BB" transform="translate(85,79)"/>
<path d="M0 0 C0 6.27 0 12.54 0 19 C-0.99 18.67 -1.98 18.34 -3 18 C-3 12.39 -3 6.78 -3 1 C-1 0 -1 0 0 0 Z " fill="#F978BB" transform="translate(115,27)"/>
</svg>
